<svg width="400" height="400" xmlns="http://www.w3.org/2000/svg" xmlns:svg="http://www.w3.org/2000/svg">
 <g>
  <title>Layer 1</title>
  <g display="none" id="svg_1">
   <rect x="-192" width="185" height="99" id="svg_2"/>
   <rect y="-36" width="100" height="30" id="svg_3"/>
   <text transform="matrix(1,0,0,1,66,-19.5) " fill="#000000" font-family="&#x27;Helvetica'" font-size="2.4" id="svg_4">http://thenounproject.com</text>
   <text transform="matrix(1,0,0,1,7.166,-24.5) " id="svg_5">
    <tspan x="0" y="0" fill="#000000" font-family="&#x27;Helvetica-Bold'" font-size="6.1578" id="svg_6">The Noun Project</tspan>
    <tspan x="1.12" y="4.8" fill="#000000" font-family="&#x27;Helvetica-Bold'" font-size="4" id="svg_7">Icon Template</tspan>
   </text>
   <text transform="matrix(1,0,0,1,-178.5,10.5) " fill="#000000" font-family="&#x27;Helvetica-Bold'" font-size="6.1578" id="svg_8">Reminders</text>
   <line fill="#000000" stroke="#FFFFFF" stroke-miterlimit="10" x1="8" y1="-14.5" x2="18" y2="-14.5" id="svg_9"/>
   <line fill="#000000" stroke="#FFFFFF" stroke-miterlimit="10" x1="-179" y1="16.5" x2="-162" y2="16.5" id="svg_10"/>
   <g display="inline" id="svg_11">
    <g id="svg_12">
     <g id="svg_13">
      <rect x="-170.802" y="31.318" fill="#000000" width="8.721" height="8.642" id="svg_14"/>
      <path fill="#000000" d="m-164.455,42.312l4.747,0l0,-4.703l-4.747,0l0,4.703zm5.189,0.437l-5.63,0l0,-5.579l5.63,0l0,5.579l0,0zm-6.955,1.313l8.279,0l0,-8.203l-8.279,0l0,8.203l0,0zm8.721,0.438l-9.163,0l0,-9.079l9.163,0l0,9.079l0,0z" id="svg_15"/>
      <polygon fill="#000000" points="-166.149,44.133 -166.292,43.991 -158.013,35.787 -157.871,35.929     " id="svg_16"/>
     </g>
    </g>
   </g>
   <rect x="-179" y="58" fill="none" width="35" height="32.5" id="svg_17"/>
   <text transform="matrix(1,0,0,1,-179,60.1572) " id="svg_18">
    <tspan x="0" y="0" fill="#000000" font-family="&#x27;Helvetica-Bold'" font-size="3" id="svg_19">Strokes</tspan>
    <tspan x="0" y="5" fill="#000000" font-family="&#x27;Helvetica'" font-size="2.4" id="svg_20">Try to keep strokes at 4px</tspan>
    <tspan x="0" y="10" fill="#000000" font-family="&#x27;Helvetica'" font-size="2.4" id="svg_21">Minimum stroke weight is 2px</tspan>
    <tspan x="0" y="14.5" fill="#000000" font-family="&#x27;Helvetica'" font-size="2.4" id="svg_22">For thicker strokes use even</tspan>
    <tspan x="0" y="17.5" fill="#000000" font-family="&#x27;Helvetica'" font-size="2.4" id="svg_23">numbers: 6px, 8px etc.</tspan>
    <tspan x="0" y="22" fill="#000000" font-family="&#x27;Helvetica-Bold'" font-size="2.4" id="svg_24">Remember to expand strokes</tspan>
    <tspan x="0" y="25" fill="#000000" font-family="&#x27;Helvetica-Bold'" font-size="2.4" id="svg_25">before saving as an SVG</tspan>
   </text>
   <rect x="-136.5" y="58" fill="none" width="35" height="32.5" id="svg_26"/>
   <text transform="matrix(1,0,0,1,-136.5,60.1572) " id="svg_27">
    <tspan x="0" y="0" fill="#000000" font-family="&#x27;Helvetica-Bold'" font-size="3" id="svg_28">Size</tspan>
    <tspan x="0" y="5" fill="#000000" font-family="&#x27;Helvetica'" font-size="2.4" id="svg_29">Cannot be wider or taller than</tspan>
    <tspan x="0" y="8.5" fill="#000000" font-family="&#x27;Helvetica'" font-size="2.4" id="svg_30">100px (artboard size)</tspan>
    <tspan x="0" y="13.5" fill="#000000" font-family="&#x27;Helvetica'" font-size="2.4" id="svg_31">Scale your icon to fill as much of</tspan>
    <tspan x="0" y="16.5" fill="#000000" font-family="&#x27;Helvetica'" font-size="2.4" id="svg_32">the artboard as possible</tspan>
   </text>
   <rect x="-94" y="58" fill="none" width="35" height="32.5" id="svg_33"/>
   <text transform="matrix(1,0,0,1,-94,60.1572) " id="svg_34">
    <tspan x="0" y="0" fill="#000000" font-family="&#x27;Helvetica-Bold'" font-size="3" id="svg_35">Ungroup</tspan>
    <tspan x="0" y="5" fill="#000000" font-family="&#x27;Helvetica'" font-size="2.4" id="svg_36">If your design has more than one</tspan>
    <tspan x="0" y="8" fill="#000000" font-family="&#x27;Helvetica'" font-size="2.4" id="svg_37">shape, make sure to ungroup</tspan>
   </text>
   <rect x="-50" y="58" fill="none" width="35" height="32.5" id="svg_38"/>
   <text transform="matrix(1,0,0,1,-50,60.1572) " id="svg_39">
    <tspan x="0" y="0" fill="#000000" font-family="&#x27;Helvetica-Bold'" font-size="3" id="svg_40">Save as</tspan>
    <tspan x="0" y="5" fill="#000000" font-family="&#x27;Helvetica'" font-size="2.4" id="svg_41">Save as .SVG and make sure</tspan>
    <tspan x="0" y="8" fill="#000000" font-family="&#x27;Helvetica'" font-size="2.4" id="svg_42">“Use Artboards” is checked</tspan>
   </text>
   <text transform="matrix(1.0074,0,0,1,-125.542,30.5933) " fill="#000000" font-family="&#x27;Helvetica'" font-size="2.5731" id="svg_43">100px</text>
   <text transform="matrix(1.0074,0,0,1,-41,39) " fill="#000000" font-family="&#x27;Helvetica-Bold'" font-size="5.1462" id="svg_44">.SVG</text>
   <rect x="-126.514" y="34.815" fill="#000000" width="10.261" height="10.185" id="svg_45"/>
   <rect x="-126.477" y="31.766" fill="#000000" width="0.522" height="2.337" id="svg_46"/>
   <rect x="-116.812" y="31.766" fill="#000000" width="0.523" height="2.337" id="svg_47"/>
   <rect x="-127" y="32.337" fill="#000000" width="11.233" height="0.572" id="svg_48"/>
   <g display="inline" id="svg_49">
    <rect x="-83.805" y="33.844" fill="#000000" width="10.305" height="10.156" id="svg_50"/>
    <rect x="-76.809" y="28.707" fill="#000000" width="3.308" height="3.261" id="svg_51"/>
   </g>
   <rect x="-178.5" y="22.5" fill="#000000" stroke="#FFFFFF" stroke-miterlimit="10" width="30" height="30" id="svg_52"/>
   <rect x="-136.5" y="22.5" fill="#000000" stroke="#FFFFFF" stroke-miterlimit="10" width="30" height="30" id="svg_53"/>
   <rect x="-93.5" y="22.5" fill="#000000" stroke="#FFFFFF" stroke-miterlimit="10" width="30" height="30" id="svg_54"/>
   <rect x="-49.5" y="22.5" fill="#000000" stroke="#FFFFFF" stroke-miterlimit="10" width="30" height="30" id="svg_55"/>
  </g>
  <g id="svg_56" stroke="null">
   <rect x="5.5" y="341.80482" stroke-miterlimit="10" width="388" height="50.94949" id="svg_59" stroke="#000000"/>
  </g>
 </g>
</svg>