<svg width="400" height="400" xmlns="http://www.w3.org/2000/svg" xmlns:svg="http://www.w3.org/2000/svg" xmlns:xlink="http://www.w3.org/1999/xlink">
 <!-- Created with SVG-edit - http://svg-edit.googlecode.com/ -->
 <title>ready</title>
 <defs>
  <symbol id="svg_1" viewBox="0 0 100 125" y="0px" x="0px" xmlns:xlink="http://www.w3.org/1999/xlink" xmlns="http://www.w3.org/2000/svg">
   <g display="none">
    <rect height="99" width="185" x="-192"/>
    <rect height="30" width="100" y="-36"/>
    <text font-size="2.4" font-family="&#x27;Helvetica'" fill="#000000" transform="matrix(1 0 0 1 66 -19.5)">http://thenounproject.com</text>
    <text transform="matrix(1 0 0 1 7.166 -24.5)">
     <tspan font-size="6.1578" font-family="&#x27;Helvetica-Bold'" fill="#000000" y="0" x="0">The Noun Project</tspan>
     <tspan font-size="4" font-family="&#x27;Helvetica-Bold'" fill="#000000" y="4.8" x="1.12">Icon Template</tspan>
    </text>
    <text font-size="6.1578" font-family="&#x27;Helvetica-Bold'" fill="#000000" transform="matrix(1 0 0 1 -178.5 10.5)">Reminders</text>
    <line y2="-14.5" x2="18" y1="-14.5" x1="8" stroke-miterlimit="10" stroke="#FFFFFF" fill="#000000"/>
    <line y2="16.5" x2="-162" y1="16.5" x1="-179" stroke-miterlimit="10" stroke="#FFFFFF" fill="#000000"/>
    <g display="inline">
     <g>
      <g>
       <rect height="8.642" width="8.721" fill="#000000" y="31.318" x="-170.802"/>
       <path d="m-164.455,42.312l4.747,0l0,-4.703l-4.747,0l0,4.703zm5.189,0.437l-5.63,0l0,-5.579l5.63,0l0,5.579l0,0zm-6.955,1.313l8.279,0l0,-8.203l-8.279,0l0,8.203l0,0zm8.721,0.438l-9.163,0l0,-9.079l9.163,0l0,9.079l0,0z" fill="#000000"/>
       <polygon points="-166.149,44.133 -166.292,43.991 -158.013,35.787 -157.871,35.929     " fill="#000000"/>
      </g>
     </g>
    </g>
    <rect height="32.5" width="35" fill="none" y="58" x="-179"/>
    <text transform="matrix(1 0 0 1 -179 60.1572)">
     <tspan font-size="3" font-family="&#x27;Helvetica-Bold'" fill="#000000" y="0" x="0">Strokes</tspan>
     <tspan font-size="2.4" font-family="&#x27;Helvetica'" fill="#000000" y="5" x="0">Try to keep strokes at 4px</tspan>
     <tspan font-size="2.4" font-family="&#x27;Helvetica'" fill="#000000" y="10" x="0">Minimum stroke weight is 2px</tspan>
     <tspan font-size="2.4" font-family="&#x27;Helvetica'" fill="#000000" y="14.5" x="0">For thicker strokes use even</tspan>
     <tspan font-size="2.4" font-family="&#x27;Helvetica'" fill="#000000" y="17.5" x="0">numbers: 6px, 8px etc.</tspan>
     <tspan font-size="2.4" font-family="&#x27;Helvetica-Bold'" fill="#000000" y="22" x="0">Remember to expand strokes</tspan>
     <tspan font-size="2.4" font-family="&#x27;Helvetica-Bold'" fill="#000000" y="25" x="0">before saving as an SVG</tspan>
    </text>
    <rect height="32.5" width="35" fill="none" y="58" x="-136.5"/>
    <text transform="matrix(1 0 0 1 -136.5 60.1572)">
     <tspan font-size="3" font-family="&#x27;Helvetica-Bold'" fill="#000000" y="0" x="0">Size</tspan>
     <tspan font-size="2.4" font-family="&#x27;Helvetica'" fill="#000000" y="5" x="0">Cannot be wider or taller than</tspan>
     <tspan font-size="2.4" font-family="&#x27;Helvetica'" fill="#000000" y="8.5" x="0">100px (artboard size)</tspan>
     <tspan font-size="2.4" font-family="&#x27;Helvetica'" fill="#000000" y="13.5" x="0">Scale your icon to fill as much of</tspan>
     <tspan font-size="2.4" font-family="&#x27;Helvetica'" fill="#000000" y="16.5" x="0">the artboard as possible</tspan>
    </text>
    <rect height="32.5" width="35" fill="none" y="58" x="-94"/>
    <text transform="matrix(1 0 0 1 -94 60.1572)">
     <tspan font-size="3" font-family="&#x27;Helvetica-Bold'" fill="#000000" y="0" x="0">Ungroup</tspan>
     <tspan font-size="2.4" font-family="&#x27;Helvetica'" fill="#000000" y="5" x="0">If your design has more than one</tspan>
     <tspan font-size="2.4" font-family="&#x27;Helvetica'" fill="#000000" y="8" x="0">shape, make sure to ungroup</tspan>
    </text>
    <rect height="32.5" width="35" fill="none" y="58" x="-50"/>
    <text transform="matrix(1 0 0 1 -50 60.1572)">
     <tspan font-size="3" font-family="&#x27;Helvetica-Bold'" fill="#000000" y="0" x="0">Save as</tspan>
     <tspan font-size="2.4" font-family="&#x27;Helvetica'" fill="#000000" y="5" x="0">Save as .SVG and make sure</tspan>
     <tspan font-size="2.4" font-family="&#x27;Helvetica'" fill="#000000" y="8" x="0">“Use Artboards” is checked</tspan>
    </text>
    <text font-size="2.5731" font-family="&#x27;Helvetica'" fill="#000000" transform="matrix(1.0074 0 0 1 -125.542 30.5933)">100px</text>
    <text font-size="5.1462" font-family="&#x27;Helvetica-Bold'" fill="#000000" transform="matrix(1.0074 0 0 1 -41 39)">.SVG</text>
    <rect height="10.185" width="10.261" fill="#000000" y="34.815" x="-126.514"/>
    <rect height="2.337" width="0.522" fill="#000000" y="31.766" x="-126.477"/>
    <rect height="2.337" width="0.523" fill="#000000" y="31.766" x="-116.812"/>
    <rect height="0.572" width="11.233" fill="#000000" y="32.337" x="-127"/>
    <g display="inline">
     <rect height="10.156" width="10.305" fill="#000000" y="33.844" x="-83.805"/>
     <rect height="3.261" width="3.308" fill="#000000" y="28.707" x="-76.809"/>
    </g>
    <rect height="30" width="30" stroke-miterlimit="10" stroke="#FFFFFF" fill="#000000" y="22.5" x="-178.5"/>
    <rect height="30" width="30" stroke-miterlimit="10" stroke="#FFFFFF" fill="#000000" y="22.5" x="-136.5"/>
    <rect height="30" width="30" stroke-miterlimit="10" stroke="#FFFFFF" fill="#000000" y="22.5" x="-93.5"/>
    <rect height="30" width="30" stroke-miterlimit="10" stroke="#FFFFFF" fill="#000000" y="22.5" x="-49.5"/>
   </g>
   <g>
    <circle r="22.953" cy="24.051" cx="53.218" stroke-miterlimit="10" stroke="#000000"/>
    <path d="m84.333,99.818c0,-12.07 -0.516,-25.323 -4.243,-34.048c-4.848,-11.347 -18.089,-15.888 -26.872,-15.888s-21.683,5.933 -26.872,17.024c-4.039,8.633 -4.242,20.842 -4.243,32.912" stroke-miterlimit="10" stroke="#000000"/>
    <rect height="13" width="99" stroke-miterlimit="10" stroke="#000000" y="86.5" x="0.5"/>
    <path d="m17.5,52.094c0,4.091 -2.423,7.406 -5.412,7.406l-0.176,0c-2.989,0 -5.412,-3.315 -5.412,-7.406l0,-37.188c0,-4.091 2.423,-7.406 5.412,-7.406l0.176,0c2.989,0 5.412,3.315 5.412,7.406l0,37.188z" stroke-miterlimit="10" stroke="#000000"/>
    <path d="m33.48,65.269c-1.806,3.258 -5.442,4.692 -8.121,3.207l-16.168,-8.963c-2.68,-1.486 -3.389,-5.33 -1.583,-8.584l0,0c1.805,-3.259 5.439,-4.694 8.119,-3.21l16.169,8.962c2.679,1.487 3.388,5.331 1.584,8.588l0,0z" stroke-miterlimit="10" stroke="#000000"/>
   </g>
  </symbol>
 </defs>
 <g>
  <title>Layer 1</title>
  <use x="45.50816" y="109.776636" transform="matrix(1.220737548781773,0,0,1.220737548781773,-99.1499582078804,-129.44650422067951) " xlink:href="#svg_1" id="svg_2"/>
  <g id="svg_3"/>
 </g>
</svg>